<?xml version="1.0" encoding="utf-8" standalone="no"?>
<!DOCTYPE svg PUBLIC "-//W3C//DTD SVG 1.1//EN"
  "http://www.w3.org/Graphics/SVG/1.1/DTD/svg11.dtd">
<svg xmlns:xlink="http://www.w3.org/1999/xlink" width="698.21375pt" height="378.269122pt" viewBox="0 0 698.21375 378.269122" xmlns="http://www.w3.org/2000/svg" version="1.1">
 <metadata>
  <rdf:RDF xmlns:dc="http://purl.org/dc/elements/1.1/" xmlns:cc="http://creativecommons.org/ns#" xmlns:rdf="http://www.w3.org/1999/02/22-rdf-syntax-ns#">
   <cc:Work>
    <dc:type rdf:resource="http://purl.org/dc/dcmitype/StillImage"/>
    <dc:date>2026-07-05T16:29:28.255142</dc:date>
    <dc:format>image/svg+xml</dc:format>
    <dc:creator>
     <cc:Agent>
      <dc:title>Matplotlib v3.10.8, https://matplotlib.org/</dc:title>
     </cc:Agent>
    </dc:creator>
   </cc:Work>
  </rdf:RDF>
 </metadata>
 <defs>
  <style type="text/css">*{stroke-linejoin: round; stroke-linecap: butt}</style>
 </defs>
 <g id="figure_1">
  <g id="patch_1">
   <path d="M 0 378.269122 
L 698.21375 378.269122 
L 698.21375 0 
L 0 0 
z
" style="fill: #ffffff"/>
  </g>
  <g id="axes_1">
   <g id="patch_2">
    <path d="M 50.14375 287.152536 
L 691.01375 287.152536 
L 691.01375 32.597656 
L 50.14375 32.597656 
z
" style="fill: #ffffff"/>
   </g>
   <g id="matplotlib.axis_1">
    <g id="xtick_1">
     <g id="line2d_1">
      <path d="M 79.274205 287.152536 
L 79.274205 32.597656 
" clip-path="url(#p831bfceb4e)" style="fill: none; stroke: #e2e8f0; stroke-width: 0.8; stroke-linecap: square"/>
     </g>
     <g id="line2d_2">
      <defs>
       <path id="mbd536b7bbb" d="M 0 0 
L 0 3.5 
" style="stroke: #000000; stroke-width: 0.8"/>
      </defs>
      <g>
       <use xlink:href="#mbd536b7bbb" x="79.274205" y="287.152536" style="stroke: #000000; stroke-width: 0.8"/>
      </g>
     </g>
     <g id="text_1">
      <!-- 1 -->
      <g transform="translate(76.092955 301.750974) scale(0.1 -0.1)">
       <defs>
        <path id="DejaVuSans-31" d="M 794 531 
L 1825 531 
L 1825 4091 
L 703 3866 
L 703 4441 
L 1819 4666 
L 2450 4666 
L 2450 531 
L 3481 531 
L 3481 0 
L 794 0 
L 794 531 
z
" transform="scale(0.015625)"/>
       </defs>
       <use xlink:href="#DejaVuSans-31"/>
      </g>
     </g>
    </g>
    <g id="xtick_2">
     <g id="line2d_3">
      <path d="M 162.504075 287.152536 
L 162.504075 32.597656 
" clip-path="url(#p831bfceb4e)" style="fill: none; stroke: #e2e8f0; stroke-width: 0.8; stroke-linecap: square"/>
     </g>
     <g id="line2d_4">
      <g>
       <use xlink:href="#mbd536b7bbb" x="162.504075" y="287.152536" style="stroke: #000000; stroke-width: 0.8"/>
      </g>
     </g>
     <g id="text_2">
      <!-- 2 -->
      <g transform="translate(159.322825 301.750974) scale(0.1 -0.1)">
       <defs>
        <path id="DejaVuSans-32" d="M 1228 531 
L 3431 531 
L 3431 0 
L 469 0 
L 469 531 
Q 828 903 1448 1529 
Q 2069 2156 2228 2338 
Q 2531 2678 2651 2914 
Q 2772 3150 2772 3378 
Q 2772 3750 2511 3984 
Q 2250 4219 1831 4219 
Q 1534 4219 1204 4116 
Q 875 4013 500 3803 
L 500 4441 
Q 881 4594 1212 4672 
Q 1544 4750 1819 4750 
Q 2544 4750 2975 4387 
Q 3406 4025 3406 3419 
Q 3406 3131 3298 2873 
Q 3191 2616 2906 2266 
Q 2828 2175 2409 1742 
Q 1991 1309 1228 531 
z
" transform="scale(0.015625)"/>
       </defs>
       <use xlink:href="#DejaVuSans-32"/>
      </g>
     </g>
    </g>
    <g id="xtick_3">
     <g id="line2d_5">
      <path d="M 245.733945 287.152536 
L 245.733945 32.597656 
" clip-path="url(#p831bfceb4e)" style="fill: none; stroke: #e2e8f0; stroke-width: 0.8; stroke-linecap: square"/>
     </g>
     <g id="line2d_6">
      <g>
       <use xlink:href="#mbd536b7bbb" x="245.733945" y="287.152536" style="stroke: #000000; stroke-width: 0.8"/>
      </g>
     </g>
     <g id="text_3">
      <!-- 3 -->
      <g transform="translate(242.552695 301.750974) scale(0.1 -0.1)">
       <defs>
        <path id="DejaVuSans-33" d="M 2597 2516 
Q 3050 2419 3304 2112 
Q 3559 1806 3559 1356 
Q 3559 666 3084 287 
Q 2609 -91 1734 -91 
Q 1441 -91 1130 -33 
Q 819 25 488 141 
L 488 750 
Q 750 597 1062 519 
Q 1375 441 1716 441 
Q 2309 441 2620 675 
Q 2931 909 2931 1356 
Q 2931 1769 2642 2001 
Q 2353 2234 1838 2234 
L 1294 2234 
L 1294 2753 
L 1863 2753 
Q 2328 2753 2575 2939 
Q 2822 3125 2822 3475 
Q 2822 3834 2567 4026 
Q 2313 4219 1838 4219 
Q 1578 4219 1281 4162 
Q 984 4106 628 3988 
L 628 4550 
Q 988 4650 1302 4700 
Q 1616 4750 1894 4750 
Q 2613 4750 3031 4423 
Q 3450 4097 3450 3541 
Q 3450 3153 3228 2886 
Q 3006 2619 2597 2516 
z
" transform="scale(0.015625)"/>
       </defs>
       <use xlink:href="#DejaVuSans-33"/>
      </g>
     </g>
    </g>
    <g id="xtick_4">
     <g id="line2d_7">
      <path d="M 328.963815 287.152536 
L 328.963815 32.597656 
" clip-path="url(#p831bfceb4e)" style="fill: none; stroke: #e2e8f0; stroke-width: 0.8; stroke-linecap: square"/>
     </g>
     <g id="line2d_8">
      <g>
       <use xlink:href="#mbd536b7bbb" x="328.963815" y="287.152536" style="stroke: #000000; stroke-width: 0.8"/>
      </g>
     </g>
     <g id="text_4">
      <!-- 4 -->
      <g transform="translate(325.782565 301.750974) scale(0.1 -0.1)">
       <defs>
        <path id="DejaVuSans-34" d="M 2419 4116 
L 825 1625 
L 2419 1625 
L 2419 4116 
z
M 2253 4666 
L 3047 4666 
L 3047 1625 
L 3713 1625 
L 3713 1100 
L 3047 1100 
L 3047 0 
L 2419 0 
L 2419 1100 
L 313 1100 
L 313 1709 
L 2253 4666 
z
" transform="scale(0.015625)"/>
       </defs>
       <use xlink:href="#DejaVuSans-34"/>
      </g>
     </g>
    </g>
    <g id="xtick_5">
     <g id="line2d_9">
      <path d="M 412.193685 287.152536 
L 412.193685 32.597656 
" clip-path="url(#p831bfceb4e)" style="fill: none; stroke: #e2e8f0; stroke-width: 0.8; stroke-linecap: square"/>
     </g>
     <g id="line2d_10">
      <g>
       <use xlink:href="#mbd536b7bbb" x="412.193685" y="287.152536" style="stroke: #000000; stroke-width: 0.8"/>
      </g>
     </g>
     <g id="text_5">
      <!-- 5 -->
      <g transform="translate(409.012435 301.750974) scale(0.1 -0.1)">
       <defs>
        <path id="DejaVuSans-35" d="M 691 4666 
L 3169 4666 
L 3169 4134 
L 1269 4134 
L 1269 2991 
Q 1406 3038 1543 3061 
Q 1681 3084 1819 3084 
Q 2600 3084 3056 2656 
Q 3513 2228 3513 1497 
Q 3513 744 3044 326 
Q 2575 -91 1722 -91 
Q 1428 -91 1123 -41 
Q 819 9 494 109 
L 494 744 
Q 775 591 1075 516 
Q 1375 441 1709 441 
Q 2250 441 2565 725 
Q 2881 1009 2881 1497 
Q 2881 1984 2565 2268 
Q 2250 2553 1709 2553 
Q 1456 2553 1204 2497 
Q 953 2441 691 2322 
L 691 4666 
z
" transform="scale(0.015625)"/>
       </defs>
       <use xlink:href="#DejaVuSans-35"/>
      </g>
     </g>
    </g>
    <g id="xtick_6">
     <g id="line2d_11">
      <path d="M 495.423555 287.152536 
L 495.423555 32.597656 
" clip-path="url(#p831bfceb4e)" style="fill: none; stroke: #e2e8f0; stroke-width: 0.8; stroke-linecap: square"/>
     </g>
     <g id="line2d_12">
      <g>
       <use xlink:href="#mbd536b7bbb" x="495.423555" y="287.152536" style="stroke: #000000; stroke-width: 0.8"/>
      </g>
     </g>
     <g id="text_6">
      <!-- 6 -->
      <g transform="translate(492.242305 301.750974) scale(0.1 -0.1)">
       <defs>
        <path id="DejaVuSans-36" d="M 2113 2584 
Q 1688 2584 1439 2293 
Q 1191 2003 1191 1497 
Q 1191 994 1439 701 
Q 1688 409 2113 409 
Q 2538 409 2786 701 
Q 3034 994 3034 1497 
Q 3034 2003 2786 2293 
Q 2538 2584 2113 2584 
z
M 3366 4563 
L 3366 3988 
Q 3128 4100 2886 4159 
Q 2644 4219 2406 4219 
Q 1781 4219 1451 3797 
Q 1122 3375 1075 2522 
Q 1259 2794 1537 2939 
Q 1816 3084 2150 3084 
Q 2853 3084 3261 2657 
Q 3669 2231 3669 1497 
Q 3669 778 3244 343 
Q 2819 -91 2113 -91 
Q 1303 -91 875 529 
Q 447 1150 447 2328 
Q 447 3434 972 4092 
Q 1497 4750 2381 4750 
Q 2619 4750 2861 4703 
Q 3103 4656 3366 4563 
z
" transform="scale(0.015625)"/>
       </defs>
       <use xlink:href="#DejaVuSans-36"/>
      </g>
     </g>
    </g>
    <g id="xtick_7">
     <g id="line2d_13">
      <path d="M 578.653425 287.152536 
L 578.653425 32.597656 
" clip-path="url(#p831bfceb4e)" style="fill: none; stroke: #e2e8f0; stroke-width: 0.8; stroke-linecap: square"/>
     </g>
     <g id="line2d_14">
      <g>
       <use xlink:href="#mbd536b7bbb" x="578.653425" y="287.152536" style="stroke: #000000; stroke-width: 0.8"/>
      </g>
     </g>
     <g id="text_7">
      <!-- 7 -->
      <g transform="translate(575.472175 301.750974) scale(0.1 -0.1)">
       <defs>
        <path id="DejaVuSans-37" d="M 525 4666 
L 3525 4666 
L 3525 4397 
L 1831 0 
L 1172 0 
L 2766 4134 
L 525 4134 
L 525 4666 
z
" transform="scale(0.015625)"/>
       </defs>
       <use xlink:href="#DejaVuSans-37"/>
      </g>
     </g>
    </g>
    <g id="xtick_8">
     <g id="line2d_15">
      <path d="M 661.883295 287.152536 
L 661.883295 32.597656 
" clip-path="url(#p831bfceb4e)" style="fill: none; stroke: #e2e8f0; stroke-width: 0.8; stroke-linecap: square"/>
     </g>
     <g id="line2d_16">
      <g>
       <use xlink:href="#mbd536b7bbb" x="661.883295" y="287.152536" style="stroke: #000000; stroke-width: 0.8"/>
      </g>
     </g>
     <g id="text_8">
      <!-- 8 -->
      <g transform="translate(658.702045 301.750974) scale(0.1 -0.1)">
       <defs>
        <path id="DejaVuSans-38" d="M 2034 2216 
Q 1584 2216 1326 1975 
Q 1069 1734 1069 1313 
Q 1069 891 1326 650 
Q 1584 409 2034 409 
Q 2484 409 2743 651 
Q 3003 894 3003 1313 
Q 3003 1734 2745 1975 
Q 2488 2216 2034 2216 
z
M 1403 2484 
Q 997 2584 770 2862 
Q 544 3141 544 3541 
Q 544 4100 942 4425 
Q 1341 4750 2034 4750 
Q 2731 4750 3128 4425 
Q 3525 4100 3525 3541 
Q 3525 3141 3298 2862 
Q 3072 2584 2669 2484 
Q 3125 2378 3379 2068 
Q 3634 1759 3634 1313 
Q 3634 634 3220 271 
Q 2806 -91 2034 -91 
Q 1263 -91 848 271 
Q 434 634 434 1313 
Q 434 1759 690 2068 
Q 947 2378 1403 2484 
z
M 1172 3481 
Q 1172 3119 1398 2916 
Q 1625 2713 2034 2713 
Q 2441 2713 2670 2916 
Q 2900 3119 2900 3481 
Q 2900 3844 2670 4047 
Q 2441 4250 2034 4250 
Q 1625 4250 1398 4047 
Q 1172 3844 1172 3481 
z
" transform="scale(0.015625)"/>
       </defs>
       <use xlink:href="#DejaVuSans-38"/>
      </g>
     </g>
    </g>
   </g>
   <g id="matplotlib.axis_2">
    <g id="ytick_1">
     <g id="line2d_17">
      <path d="M 50.14375 262.432965 
L 691.01375 262.432965 
" clip-path="url(#p831bfceb4e)" style="fill: none; stroke: #e2e8f0; stroke-width: 0.8; stroke-linecap: square"/>
     </g>
     <g id="line2d_18">
      <defs>
       <path id="m5e8c2560e5" d="M 0 0 
L -3.5 0 
" style="stroke: #000000; stroke-width: 0.8"/>
      </defs>
      <g>
       <use xlink:href="#m5e8c2560e5" x="50.14375" y="262.432965" style="stroke: #000000; stroke-width: 0.8"/>
      </g>
     </g>
     <g id="text_9">
      <!-- 3.50 -->
      <g transform="translate(20.878125 266.232184) scale(0.1 -0.1)">
       <defs>
        <path id="DejaVuSans-2e" d="M 684 794 
L 1344 794 
L 1344 0 
L 684 0 
L 684 794 
z
" transform="scale(0.015625)"/>
        <path id="DejaVuSans-30" d="M 2034 4250 
Q 1547 4250 1301 3770 
Q 1056 3291 1056 2328 
Q 1056 1369 1301 889 
Q 1547 409 2034 409 
Q 2525 409 2770 889 
Q 3016 1369 3016 2328 
Q 3016 3291 2770 3770 
Q 2525 4250 2034 4250 
z
M 2034 4750 
Q 2819 4750 3233 4129 
Q 3647 3509 3647 2328 
Q 3647 1150 3233 529 
Q 2819 -91 2034 -91 
Q 1250 -91 836 529 
Q 422 1150 422 2328 
Q 422 3509 836 4129 
Q 1250 4750 2034 4750 
z
" transform="scale(0.015625)"/>
       </defs>
       <use xlink:href="#DejaVuSans-33"/>
       <use xlink:href="#DejaVuSans-2e" transform="translate(63.623047 0)"/>
       <use xlink:href="#DejaVuSans-35" transform="translate(95.410156 0)"/>
       <use xlink:href="#DejaVuSans-30" transform="translate(159.033203 0)"/>
      </g>
     </g>
    </g>
    <g id="ytick_2">
     <g id="line2d_19">
      <path d="M 50.14375 233.838164 
L 691.01375 233.838164 
" clip-path="url(#p831bfceb4e)" style="fill: none; stroke: #e2e8f0; stroke-width: 0.8; stroke-linecap: square"/>
     </g>
     <g id="line2d_20">
      <g>
       <use xlink:href="#m5e8c2560e5" x="50.14375" y="233.838164" style="stroke: #000000; stroke-width: 0.8"/>
      </g>
     </g>
     <g id="text_10">
      <!-- 3.75 -->
      <g transform="translate(20.878125 237.637383) scale(0.1 -0.1)">
       <use xlink:href="#DejaVuSans-33"/>
       <use xlink:href="#DejaVuSans-2e" transform="translate(63.623047 0)"/>
       <use xlink:href="#DejaVuSans-37" transform="translate(95.410156 0)"/>
       <use xlink:href="#DejaVuSans-35" transform="translate(159.033203 0)"/>
      </g>
     </g>
    </g>
    <g id="ytick_3">
     <g id="line2d_21">
      <path d="M 50.14375 205.243363 
L 691.01375 205.243363 
" clip-path="url(#p831bfceb4e)" style="fill: none; stroke: #e2e8f0; stroke-width: 0.8; stroke-linecap: square"/>
     </g>
     <g id="line2d_22">
      <g>
       <use xlink:href="#m5e8c2560e5" x="50.14375" y="205.243363" style="stroke: #000000; stroke-width: 0.8"/>
      </g>
     </g>
     <g id="text_11">
      <!-- 4.00 -->
      <g transform="translate(20.878125 209.042581) scale(0.1 -0.1)">
       <use xlink:href="#DejaVuSans-34"/>
       <use xlink:href="#DejaVuSans-2e" transform="translate(63.623047 0)"/>
       <use xlink:href="#DejaVuSans-30" transform="translate(95.410156 0)"/>
       <use xlink:href="#DejaVuSans-30" transform="translate(159.033203 0)"/>
      </g>
     </g>
    </g>
    <g id="ytick_4">
     <g id="line2d_23">
      <path d="M 50.14375 176.648562 
L 691.01375 176.648562 
" clip-path="url(#p831bfceb4e)" style="fill: none; stroke: #e2e8f0; stroke-width: 0.8; stroke-linecap: square"/>
     </g>
     <g id="line2d_24">
      <g>
       <use xlink:href="#m5e8c2560e5" x="50.14375" y="176.648562" style="stroke: #000000; stroke-width: 0.8"/>
      </g>
     </g>
     <g id="text_12">
      <!-- 4.25 -->
      <g transform="translate(20.878125 180.44778) scale(0.1 -0.1)">
       <use xlink:href="#DejaVuSans-34"/>
       <use xlink:href="#DejaVuSans-2e" transform="translate(63.623047 0)"/>
       <use xlink:href="#DejaVuSans-32" transform="translate(95.410156 0)"/>
       <use xlink:href="#DejaVuSans-35" transform="translate(159.033203 0)"/>
      </g>
     </g>
    </g>
    <g id="ytick_5">
     <g id="line2d_25">
      <path d="M 50.14375 148.05376 
L 691.01375 148.05376 
" clip-path="url(#p831bfceb4e)" style="fill: none; stroke: #e2e8f0; stroke-width: 0.8; stroke-linecap: square"/>
     </g>
     <g id="line2d_26">
      <g>
       <use xlink:href="#m5e8c2560e5" x="50.14375" y="148.05376" style="stroke: #000000; stroke-width: 0.8"/>
      </g>
     </g>
     <g id="text_13">
      <!-- 4.50 -->
      <g transform="translate(20.878125 151.852979) scale(0.1 -0.1)">
       <use xlink:href="#DejaVuSans-34"/>
       <use xlink:href="#DejaVuSans-2e" transform="translate(63.623047 0)"/>
       <use xlink:href="#DejaVuSans-35" transform="translate(95.410156 0)"/>
       <use xlink:href="#DejaVuSans-30" transform="translate(159.033203 0)"/>
      </g>
     </g>
    </g>
    <g id="ytick_6">
     <g id="line2d_27">
      <path d="M 50.14375 119.458959 
L 691.01375 119.458959 
" clip-path="url(#p831bfceb4e)" style="fill: none; stroke: #e2e8f0; stroke-width: 0.8; stroke-linecap: square"/>
     </g>
     <g id="line2d_28">
      <g>
       <use xlink:href="#m5e8c2560e5" x="50.14375" y="119.458959" style="stroke: #000000; stroke-width: 0.8"/>
      </g>
     </g>
     <g id="text_14">
      <!-- 4.75 -->
      <g transform="translate(20.878125 123.258178) scale(0.1 -0.1)">
       <use xlink:href="#DejaVuSans-34"/>
       <use xlink:href="#DejaVuSans-2e" transform="translate(63.623047 0)"/>
       <use xlink:href="#DejaVuSans-37" transform="translate(95.410156 0)"/>
       <use xlink:href="#DejaVuSans-35" transform="translate(159.033203 0)"/>
      </g>
     </g>
    </g>
    <g id="ytick_7">
     <g id="line2d_29">
      <path d="M 50.14375 90.864158 
L 691.01375 90.864158 
" clip-path="url(#p831bfceb4e)" style="fill: none; stroke: #e2e8f0; stroke-width: 0.8; stroke-linecap: square"/>
     </g>
     <g id="line2d_30">
      <g>
       <use xlink:href="#m5e8c2560e5" x="50.14375" y="90.864158" style="stroke: #000000; stroke-width: 0.8"/>
      </g>
     </g>
     <g id="text_15">
      <!-- 5.00 -->
      <g transform="translate(20.878125 94.663377) scale(0.1 -0.1)">
       <use xlink:href="#DejaVuSans-35"/>
       <use xlink:href="#DejaVuSans-2e" transform="translate(63.623047 0)"/>
       <use xlink:href="#DejaVuSans-30" transform="translate(95.410156 0)"/>
       <use xlink:href="#DejaVuSans-30" transform="translate(159.033203 0)"/>
      </g>
     </g>
    </g>
    <g id="ytick_8">
     <g id="line2d_31">
      <path d="M 50.14375 62.269357 
L 691.01375 62.269357 
" clip-path="url(#p831bfceb4e)" style="fill: none; stroke: #e2e8f0; stroke-width: 0.8; stroke-linecap: square"/>
     </g>
     <g id="line2d_32">
      <g>
       <use xlink:href="#m5e8c2560e5" x="50.14375" y="62.269357" style="stroke: #000000; stroke-width: 0.8"/>
      </g>
     </g>
     <g id="text_16">
      <!-- 5.25 -->
      <g transform="translate(20.878125 66.068576) scale(0.1 -0.1)">
       <use xlink:href="#DejaVuSans-35"/>
       <use xlink:href="#DejaVuSans-2e" transform="translate(63.623047 0)"/>
       <use xlink:href="#DejaVuSans-32" transform="translate(95.410156 0)"/>
       <use xlink:href="#DejaVuSans-35" transform="translate(159.033203 0)"/>
      </g>
     </g>
    </g>
    <g id="ytick_9">
     <g id="line2d_33">
      <path d="M 50.14375 33.674556 
L 691.01375 33.674556 
" clip-path="url(#p831bfceb4e)" style="fill: none; stroke: #e2e8f0; stroke-width: 0.8; stroke-linecap: square"/>
     </g>
     <g id="line2d_34">
      <g>
       <use xlink:href="#m5e8c2560e5" x="50.14375" y="33.674556" style="stroke: #000000; stroke-width: 0.8"/>
      </g>
     </g>
     <g id="text_17">
      <!-- 5.50 -->
      <g transform="translate(20.878125 37.473775) scale(0.1 -0.1)">
       <use xlink:href="#DejaVuSans-35"/>
       <use xlink:href="#DejaVuSans-2e" transform="translate(63.623047 0)"/>
       <use xlink:href="#DejaVuSans-35" transform="translate(95.410156 0)"/>
       <use xlink:href="#DejaVuSans-30" transform="translate(159.033203 0)"/>
      </g>
     </g>
    </g>
    <g id="text_18">
     <!-- loss -->
     <g transform="translate(14.798438 169.532909) rotate(-90) scale(0.1 -0.1)">
      <defs>
       <path id="DejaVuSans-6c" d="M 603 4863 
L 1178 4863 
L 1178 0 
L 603 0 
L 603 4863 
z
" transform="scale(0.015625)"/>
       <path id="DejaVuSans-6f" d="M 1959 3097 
Q 1497 3097 1228 2736 
Q 959 2375 959 1747 
Q 959 1119 1226 758 
Q 1494 397 1959 397 
Q 2419 397 2687 759 
Q 2956 1122 2956 1747 
Q 2956 2369 2687 2733 
Q 2419 3097 1959 3097 
z
M 1959 3584 
Q 2709 3584 3137 3096 
Q 3566 2609 3566 1747 
Q 3566 888 3137 398 
Q 2709 -91 1959 -91 
Q 1206 -91 779 398 
Q 353 888 353 1747 
Q 353 2609 779 3096 
Q 1206 3584 1959 3584 
z
" transform="scale(0.015625)"/>
       <path id="DejaVuSans-73" d="M 2834 3397 
L 2834 2853 
Q 2591 2978 2328 3040 
Q 2066 3103 1784 3103 
Q 1356 3103 1142 2972 
Q 928 2841 928 2578 
Q 928 2378 1081 2264 
Q 1234 2150 1697 2047 
L 1894 2003 
Q 2506 1872 2764 1633 
Q 3022 1394 3022 966 
Q 3022 478 2636 193 
Q 2250 -91 1575 -91 
Q 1294 -91 989 -36 
Q 684 19 347 128 
L 347 722 
Q 666 556 975 473 
Q 1284 391 1588 391 
Q 1994 391 2212 530 
Q 2431 669 2431 922 
Q 2431 1156 2273 1281 
Q 2116 1406 1581 1522 
L 1381 1569 
Q 847 1681 609 1914 
Q 372 2147 372 2553 
Q 372 3047 722 3315 
Q 1072 3584 1716 3584 
Q 2034 3584 2315 3537 
Q 2597 3491 2834 3397 
z
" transform="scale(0.015625)"/>
      </defs>
      <use xlink:href="#DejaVuSans-6c"/>
      <use xlink:href="#DejaVuSans-6f" transform="translate(27.783203 0)"/>
      <use xlink:href="#DejaVuSans-73" transform="translate(88.964844 0)"/>
      <use xlink:href="#DejaVuSans-73" transform="translate(141.064453 0)"/>
     </g>
    </g>
   </g>
   <g id="line2d_35">
    <path d="M 79.274205 44.168333 
L 162.504075 126.466534 
L 245.733945 149.679497 
L 328.963815 161.979207 
L 412.193685 170.415256 
L 495.423555 176.356611 
L 578.653425 180.975539 
L 661.883295 184.371411 
" clip-path="url(#p831bfceb4e)" style="fill: none; stroke: #2563eb; stroke-opacity: 0.9; stroke-width: 2; stroke-linecap: square"/>
    <defs>
     <path id="m2790700d96" d="M 0 2 
C 0.530406 2 1.03916 1.789267 1.414214 1.414214 
C 1.789267 1.03916 2 0.530406 2 0 
C 2 -0.530406 1.789267 -1.03916 1.414214 -1.414214 
C 1.03916 -1.789267 0.530406 -2 0 -2 
C -0.530406 -2 -1.03916 -1.789267 -1.414214 -1.414214 
C -1.789267 -1.03916 -2 -0.530406 -2 0 
C -2 0.530406 -1.789267 1.03916 -1.414214 1.414214 
C -1.03916 1.789267 -0.530406 2 0 2 
z
" style="stroke: #2563eb; stroke-opacity: 0.9"/>
    </defs>
    <g clip-path="url(#p831bfceb4e)">
     <use xlink:href="#m2790700d96" x="79.274205" y="44.168333" style="fill: #2563eb; fill-opacity: 0.9; stroke: #2563eb; stroke-opacity: 0.9"/>
     <use xlink:href="#m2790700d96" x="162.504075" y="126.466534" style="fill: #2563eb; fill-opacity: 0.9; stroke: #2563eb; stroke-opacity: 0.9"/>
     <use xlink:href="#m2790700d96" x="245.733945" y="149.679497" style="fill: #2563eb; fill-opacity: 0.9; stroke: #2563eb; stroke-opacity: 0.9"/>
     <use xlink:href="#m2790700d96" x="328.963815" y="161.979207" style="fill: #2563eb; fill-opacity: 0.9; stroke: #2563eb; stroke-opacity: 0.9"/>
     <use xlink:href="#m2790700d96" x="412.193685" y="170.415256" style="fill: #2563eb; fill-opacity: 0.9; stroke: #2563eb; stroke-opacity: 0.9"/>
     <use xlink:href="#m2790700d96" x="495.423555" y="176.356611" style="fill: #2563eb; fill-opacity: 0.9; stroke: #2563eb; stroke-opacity: 0.9"/>
     <use xlink:href="#m2790700d96" x="578.653425" y="180.975539" style="fill: #2563eb; fill-opacity: 0.9; stroke: #2563eb; stroke-opacity: 0.9"/>
     <use xlink:href="#m2790700d96" x="661.883295" y="184.371411" style="fill: #2563eb; fill-opacity: 0.9; stroke: #2563eb; stroke-opacity: 0.9"/>
    </g>
   </g>
   <g id="line2d_36">
    <path d="M 79.274205 135.570284 
L 162.504075 207.83951 
L 245.733945 232.555523 
L 328.963815 246.516528 
L 412.193685 255.74852 
L 495.423555 262.372019 
L 578.653425 267.36802 
L 661.883295 271.348721 
" clip-path="url(#p831bfceb4e)" style="fill: none; stroke-dasharray: 7.4,3.2; stroke-dashoffset: 0; stroke: #f97316; stroke-opacity: 0.9; stroke-width: 2"/>
    <defs>
     <path id="m5332472103" d="M 0 2 
C 0.530406 2 1.03916 1.789267 1.414214 1.414214 
C 1.789267 1.03916 2 0.530406 2 0 
C 2 -0.530406 1.789267 -1.03916 1.414214 -1.414214 
C 1.03916 -1.789267 0.530406 -2 0 -2 
C -0.530406 -2 -1.03916 -1.789267 -1.414214 -1.414214 
C -1.789267 -1.03916 -2 -0.530406 -2 0 
C -2 0.530406 -1.789267 1.03916 -1.414214 1.414214 
C -1.03916 1.789267 -0.530406 2 0 2 
z
" style="stroke: #f97316; stroke-opacity: 0.9"/>
    </defs>
    <g clip-path="url(#p831bfceb4e)">
     <use xlink:href="#m5332472103" x="79.274205" y="135.570284" style="fill: #f97316; fill-opacity: 0.9; stroke: #f97316; stroke-opacity: 0.9"/>
     <use xlink:href="#m5332472103" x="162.504075" y="207.83951" style="fill: #f97316; fill-opacity: 0.9; stroke: #f97316; stroke-opacity: 0.9"/>
     <use xlink:href="#m5332472103" x="245.733945" y="232.555523" style="fill: #f97316; fill-opacity: 0.9; stroke: #f97316; stroke-opacity: 0.9"/>
     <use xlink:href="#m5332472103" x="328.963815" y="246.516528" style="fill: #f97316; fill-opacity: 0.9; stroke: #f97316; stroke-opacity: 0.9"/>
     <use xlink:href="#m5332472103" x="412.193685" y="255.74852" style="fill: #f97316; fill-opacity: 0.9; stroke: #f97316; stroke-opacity: 0.9"/>
     <use xlink:href="#m5332472103" x="495.423555" y="262.372019" style="fill: #f97316; fill-opacity: 0.9; stroke: #f97316; stroke-opacity: 0.9"/>
     <use xlink:href="#m5332472103" x="578.653425" y="267.36802" style="fill: #f97316; fill-opacity: 0.9; stroke: #f97316; stroke-opacity: 0.9"/>
     <use xlink:href="#m5332472103" x="661.883295" y="271.348721" style="fill: #f97316; fill-opacity: 0.9; stroke: #f97316; stroke-opacity: 0.9"/>
    </g>
   </g>
   <g id="line2d_37">
    <path d="M 79.274205 45.224535 
L 162.504075 127.679363 
L 245.733945 150.72355 
L 328.963815 162.959672 
L 412.193685 171.164854 
L 495.423555 177.177053 
L 578.653425 181.681457 
L 661.883295 185.191017 
" clip-path="url(#p831bfceb4e)" style="fill: none; stroke-dasharray: 12.8,3.2,2,3.2; stroke-dashoffset: 0; stroke: #2563eb; stroke-opacity: 0.9; stroke-width: 2"/>
    <g clip-path="url(#p831bfceb4e)">
     <use xlink:href="#m2790700d96" x="79.274205" y="45.224535" style="fill: #2563eb; fill-opacity: 0.9; stroke: #2563eb; stroke-opacity: 0.9"/>
     <use xlink:href="#m2790700d96" x="162.504075" y="127.679363" style="fill: #2563eb; fill-opacity: 0.9; stroke: #2563eb; stroke-opacity: 0.9"/>
     <use xlink:href="#m2790700d96" x="245.733945" y="150.72355" style="fill: #2563eb; fill-opacity: 0.9; stroke: #2563eb; stroke-opacity: 0.9"/>
     <use xlink:href="#m2790700d96" x="328.963815" y="162.959672" style="fill: #2563eb; fill-opacity: 0.9; stroke: #2563eb; stroke-opacity: 0.9"/>
     <use xlink:href="#m2790700d96" x="412.193685" y="171.164854" style="fill: #2563eb; fill-opacity: 0.9; stroke: #2563eb; stroke-opacity: 0.9"/>
     <use xlink:href="#m2790700d96" x="495.423555" y="177.177053" style="fill: #2563eb; fill-opacity: 0.9; stroke: #2563eb; stroke-opacity: 0.9"/>
     <use xlink:href="#m2790700d96" x="578.653425" y="181.681457" style="fill: #2563eb; fill-opacity: 0.9; stroke: #2563eb; stroke-opacity: 0.9"/>
     <use xlink:href="#m2790700d96" x="661.883295" y="185.191017" style="fill: #2563eb; fill-opacity: 0.9; stroke: #2563eb; stroke-opacity: 0.9"/>
    </g>
   </g>
   <g id="line2d_38">
    <path d="M 79.274205 136.985321 
L 162.504075 209.72745 
L 245.733945 234.28607 
L 328.963815 248.109822 
L 412.193685 257.285358 
L 495.423555 263.8062 
L 578.653425 268.776 
L 661.883295 272.677491 
" clip-path="url(#p831bfceb4e)" style="fill: none; stroke-dasharray: 2,3.3; stroke-dashoffset: 0; stroke: #f97316; stroke-opacity: 0.9; stroke-width: 2"/>
    <g clip-path="url(#p831bfceb4e)">
     <use xlink:href="#m5332472103" x="79.274205" y="136.985321" style="fill: #f97316; fill-opacity: 0.9; stroke: #f97316; stroke-opacity: 0.9"/>
     <use xlink:href="#m5332472103" x="162.504075" y="209.72745" style="fill: #f97316; fill-opacity: 0.9; stroke: #f97316; stroke-opacity: 0.9"/>
     <use xlink:href="#m5332472103" x="245.733945" y="234.28607" style="fill: #f97316; fill-opacity: 0.9; stroke: #f97316; stroke-opacity: 0.9"/>
     <use xlink:href="#m5332472103" x="328.963815" y="248.109822" style="fill: #f97316; fill-opacity: 0.9; stroke: #f97316; stroke-opacity: 0.9"/>
     <use xlink:href="#m5332472103" x="412.193685" y="257.285358" style="fill: #f97316; fill-opacity: 0.9; stroke: #f97316; stroke-opacity: 0.9"/>
     <use xlink:href="#m5332472103" x="495.423555" y="263.8062" style="fill: #f97316; fill-opacity: 0.9; stroke: #f97316; stroke-opacity: 0.9"/>
     <use xlink:href="#m5332472103" x="578.653425" y="268.776" style="fill: #f97316; fill-opacity: 0.9; stroke: #f97316; stroke-opacity: 0.9"/>
     <use xlink:href="#m5332472103" x="661.883295" y="272.677491" style="fill: #f97316; fill-opacity: 0.9; stroke: #f97316; stroke-opacity: 0.9"/>
    </g>
   </g>
   <g id="line2d_39">
    <path d="M 79.274205 46.117533 
L 162.504075 128.895494 
L 245.733945 152.085395 
L 328.963815 164.197595 
L 412.193685 172.37891 
L 495.423555 178.315415 
L 578.653425 182.838842 
L 661.883295 186.344014 
" clip-path="url(#p831bfceb4e)" style="fill: none; stroke: #2563eb; stroke-opacity: 0.75; stroke-width: 2; stroke-linecap: square"/>
    <defs>
     <path id="m3abdf42647" d="M 0 2 
C 0.530406 2 1.03916 1.789267 1.414214 1.414214 
C 1.789267 1.03916 2 0.530406 2 0 
C 2 -0.530406 1.789267 -1.03916 1.414214 -1.414214 
C 1.03916 -1.789267 0.530406 -2 0 -2 
C -0.530406 -2 -1.03916 -1.789267 -1.414214 -1.414214 
C -1.789267 -1.03916 -2 -0.530406 -2 0 
C -2 0.530406 -1.789267 1.03916 -1.414214 1.414214 
C -1.03916 1.789267 -0.530406 2 0 2 
z
" style="stroke: #2563eb; stroke-opacity: 0.75"/>
    </defs>
    <g clip-path="url(#p831bfceb4e)">
     <use xlink:href="#m3abdf42647" x="79.274205" y="46.117533" style="fill: #2563eb; fill-opacity: 0.75; stroke: #2563eb; stroke-opacity: 0.75"/>
     <use xlink:href="#m3abdf42647" x="162.504075" y="128.895494" style="fill: #2563eb; fill-opacity: 0.75; stroke: #2563eb; stroke-opacity: 0.75"/>
     <use xlink:href="#m3abdf42647" x="245.733945" y="152.085395" style="fill: #2563eb; fill-opacity: 0.75; stroke: #2563eb; stroke-opacity: 0.75"/>
     <use xlink:href="#m3abdf42647" x="328.963815" y="164.197595" style="fill: #2563eb; fill-opacity: 0.75; stroke: #2563eb; stroke-opacity: 0.75"/>
     <use xlink:href="#m3abdf42647" x="412.193685" y="172.37891" style="fill: #2563eb; fill-opacity: 0.75; stroke: #2563eb; stroke-opacity: 0.75"/>
     <use xlink:href="#m3abdf42647" x="495.423555" y="178.315415" style="fill: #2563eb; fill-opacity: 0.75; stroke: #2563eb; stroke-opacity: 0.75"/>
     <use xlink:href="#m3abdf42647" x="578.653425" y="182.838842" style="fill: #2563eb; fill-opacity: 0.75; stroke: #2563eb; stroke-opacity: 0.75"/>
     <use xlink:href="#m3abdf42647" x="661.883295" y="186.344014" style="fill: #2563eb; fill-opacity: 0.75; stroke: #2563eb; stroke-opacity: 0.75"/>
    </g>
   </g>
   <g id="line2d_40">
    <path d="M 79.274205 138.726546 
L 162.504075 211.691811 
L 245.733945 236.061241 
L 328.963815 249.856516 
L 412.193685 259.007471 
L 495.423555 265.545499 
L 578.653425 270.461951 
L 661.883295 274.294412 
" clip-path="url(#p831bfceb4e)" style="fill: none; stroke-dasharray: 7.4,3.2; stroke-dashoffset: 0; stroke: #f97316; stroke-opacity: 0.75; stroke-width: 2"/>
    <defs>
     <path id="mf3f2db6bd4" d="M 0 2 
C 0.530406 2 1.03916 1.789267 1.414214 1.414214 
C 1.789267 1.03916 2 0.530406 2 0 
C 2 -0.530406 1.789267 -1.03916 1.414214 -1.414214 
C 1.03916 -1.789267 0.530406 -2 0 -2 
C -0.530406 -2 -1.03916 -1.789267 -1.414214 -1.414214 
C -1.789267 -1.03916 -2 -0.530406 -2 0 
C -2 0.530406 -1.789267 1.03916 -1.414214 1.414214 
C -1.03916 1.789267 -0.530406 2 0 2 
z
" style="stroke: #f97316; stroke-opacity: 0.75"/>
    </defs>
    <g clip-path="url(#p831bfceb4e)">
     <use xlink:href="#mf3f2db6bd4" x="79.274205" y="138.726546" style="fill: #f97316; fill-opacity: 0.75; stroke: #f97316; stroke-opacity: 0.75"/>
     <use xlink:href="#mf3f2db6bd4" x="162.504075" y="211.691811" style="fill: #f97316; fill-opacity: 0.75; stroke: #f97316; stroke-opacity: 0.75"/>
     <use xlink:href="#mf3f2db6bd4" x="245.733945" y="236.061241" style="fill: #f97316; fill-opacity: 0.75; stroke: #f97316; stroke-opacity: 0.75"/>
     <use xlink:href="#mf3f2db6bd4" x="328.963815" y="249.856516" style="fill: #f97316; fill-opacity: 0.75; stroke: #f97316; stroke-opacity: 0.75"/>
     <use xlink:href="#mf3f2db6bd4" x="412.193685" y="259.007471" style="fill: #f97316; fill-opacity: 0.75; stroke: #f97316; stroke-opacity: 0.75"/>
     <use xlink:href="#mf3f2db6bd4" x="495.423555" y="265.545499" style="fill: #f97316; fill-opacity: 0.75; stroke: #f97316; stroke-opacity: 0.75"/>
     <use xlink:href="#mf3f2db6bd4" x="578.653425" y="270.461951" style="fill: #f97316; fill-opacity: 0.75; stroke: #f97316; stroke-opacity: 0.75"/>
     <use xlink:href="#mf3f2db6bd4" x="661.883295" y="274.294412" style="fill: #f97316; fill-opacity: 0.75; stroke: #f97316; stroke-opacity: 0.75"/>
    </g>
   </g>
   <g id="line2d_41">
    <path d="M 79.274205 46.927225 
L 162.504075 129.742774 
L 245.733945 152.892526 
L 328.963815 164.963765 
L 412.193685 173.127687 
L 495.423555 178.887091 
L 578.653425 183.443075 
L 661.883295 187.111803 
" clip-path="url(#p831bfceb4e)" style="fill: none; stroke-dasharray: 12.8,3.2,2,3.2; stroke-dashoffset: 0; stroke: #2563eb; stroke-opacity: 0.75; stroke-width: 2"/>
    <g clip-path="url(#p831bfceb4e)">
     <use xlink:href="#m3abdf42647" x="79.274205" y="46.927225" style="fill: #2563eb; fill-opacity: 0.75; stroke: #2563eb; stroke-opacity: 0.75"/>
     <use xlink:href="#m3abdf42647" x="162.504075" y="129.742774" style="fill: #2563eb; fill-opacity: 0.75; stroke: #2563eb; stroke-opacity: 0.75"/>
     <use xlink:href="#m3abdf42647" x="245.733945" y="152.892526" style="fill: #2563eb; fill-opacity: 0.75; stroke: #2563eb; stroke-opacity: 0.75"/>
     <use xlink:href="#m3abdf42647" x="328.963815" y="164.963765" style="fill: #2563eb; fill-opacity: 0.75; stroke: #2563eb; stroke-opacity: 0.75"/>
     <use xlink:href="#m3abdf42647" x="412.193685" y="173.127687" style="fill: #2563eb; fill-opacity: 0.75; stroke: #2563eb; stroke-opacity: 0.75"/>
     <use xlink:href="#m3abdf42647" x="495.423555" y="178.887091" style="fill: #2563eb; fill-opacity: 0.75; stroke: #2563eb; stroke-opacity: 0.75"/>
     <use xlink:href="#m3abdf42647" x="578.653425" y="183.443075" style="fill: #2563eb; fill-opacity: 0.75; stroke: #2563eb; stroke-opacity: 0.75"/>
     <use xlink:href="#m3abdf42647" x="661.883295" y="187.111803" style="fill: #2563eb; fill-opacity: 0.75; stroke: #2563eb; stroke-opacity: 0.75"/>
    </g>
   </g>
   <g id="line2d_42">
    <path d="M 79.274205 140.222681 
L 162.504075 212.984084 
L 245.733945 237.209577 
L 328.963815 251.011587 
L 412.193685 260.113677 
L 495.423555 266.709631 
L 578.653425 271.657742 
L 661.883295 275.58186 
" clip-path="url(#p831bfceb4e)" style="fill: none; stroke-dasharray: 2,3.3; stroke-dashoffset: 0; stroke: #f97316; stroke-opacity: 0.75; stroke-width: 2"/>
    <g clip-path="url(#p831bfceb4e)">
     <use xlink:href="#mf3f2db6bd4" x="79.274205" y="140.222681" style="fill: #f97316; fill-opacity: 0.75; stroke: #f97316; stroke-opacity: 0.75"/>
     <use xlink:href="#mf3f2db6bd4" x="162.504075" y="212.984084" style="fill: #f97316; fill-opacity: 0.75; stroke: #f97316; stroke-opacity: 0.75"/>
     <use xlink:href="#mf3f2db6bd4" x="245.733945" y="237.209577" style="fill: #f97316; fill-opacity: 0.75; stroke: #f97316; stroke-opacity: 0.75"/>
     <use xlink:href="#mf3f2db6bd4" x="328.963815" y="251.011587" style="fill: #f97316; fill-opacity: 0.75; stroke: #f97316; stroke-opacity: 0.75"/>
     <use xlink:href="#mf3f2db6bd4" x="412.193685" y="260.113677" style="fill: #f97316; fill-opacity: 0.75; stroke: #f97316; stroke-opacity: 0.75"/>
     <use xlink:href="#mf3f2db6bd4" x="495.423555" y="266.709631" style="fill: #f97316; fill-opacity: 0.75; stroke: #f97316; stroke-opacity: 0.75"/>
     <use xlink:href="#mf3f2db6bd4" x="578.653425" y="271.657742" style="fill: #f97316; fill-opacity: 0.75; stroke: #f97316; stroke-opacity: 0.75"/>
     <use xlink:href="#mf3f2db6bd4" x="661.883295" y="275.58186" style="fill: #f97316; fill-opacity: 0.75; stroke: #f97316; stroke-opacity: 0.75"/>
    </g>
   </g>
   <g id="patch_3">
    <path d="M 50.14375 287.152536 
L 50.14375 32.597656 
" style="fill: none; stroke: #000000; stroke-width: 0.8; stroke-linejoin: miter; stroke-linecap: square"/>
   </g>
   <g id="patch_4">
    <path d="M 691.01375 287.152536 
L 691.01375 32.597656 
" style="fill: none; stroke: #000000; stroke-width: 0.8; stroke-linejoin: miter; stroke-linecap: square"/>
   </g>
   <g id="patch_5">
    <path d="M 50.14375 287.152536 
L 691.01375 287.152536 
" style="fill: none; stroke: #000000; stroke-width: 0.8; stroke-linejoin: miter; stroke-linecap: square"/>
   </g>
   <g id="patch_6">
    <path d="M 50.14375 32.597656 
L 691.01375 32.597656 
" style="fill: none; stroke: #000000; stroke-width: 0.8; stroke-linejoin: miter; stroke-linecap: square"/>
   </g>
   <g id="text_19">
    <!-- Training loss by epoch -->
    <g transform="translate(276.204141 18.597656) scale(0.15 -0.15)">
     <defs>
      <path id="DejaVuSans-Bold-54" d="M 31 4666 
L 4331 4666 
L 4331 3756 
L 2784 3756 
L 2784 0 
L 1581 0 
L 1581 3756 
L 31 3756 
L 31 4666 
z
" transform="scale(0.015625)"/>
      <path id="DejaVuSans-Bold-72" d="M 3138 2547 
Q 2991 2616 2845 2648 
Q 2700 2681 2553 2681 
Q 2122 2681 1889 2404 
Q 1656 2128 1656 1613 
L 1656 0 
L 538 0 
L 538 3500 
L 1656 3500 
L 1656 2925 
Q 1872 3269 2151 3426 
Q 2431 3584 2822 3584 
Q 2878 3584 2943 3579 
Q 3009 3575 3134 3559 
L 3138 2547 
z
" transform="scale(0.015625)"/>
      <path id="DejaVuSans-Bold-61" d="M 2106 1575 
Q 1756 1575 1579 1456 
Q 1403 1338 1403 1106 
Q 1403 894 1545 773 
Q 1688 653 1941 653 
Q 2256 653 2472 879 
Q 2688 1106 2688 1447 
L 2688 1575 
L 2106 1575 
z
M 3816 1997 
L 3816 0 
L 2688 0 
L 2688 519 
Q 2463 200 2181 54 
Q 1900 -91 1497 -91 
Q 953 -91 614 226 
Q 275 544 275 1050 
Q 275 1666 698 1953 
Q 1122 2241 2028 2241 
L 2688 2241 
L 2688 2328 
Q 2688 2594 2478 2717 
Q 2269 2841 1825 2841 
Q 1466 2841 1156 2769 
Q 847 2697 581 2553 
L 581 3406 
Q 941 3494 1303 3539 
Q 1666 3584 2028 3584 
Q 2975 3584 3395 3211 
Q 3816 2838 3816 1997 
z
" transform="scale(0.015625)"/>
      <path id="DejaVuSans-Bold-69" d="M 538 3500 
L 1656 3500 
L 1656 0 
L 538 0 
L 538 3500 
z
M 538 4863 
L 1656 4863 
L 1656 3950 
L 538 3950 
L 538 4863 
z
" transform="scale(0.015625)"/>
      <path id="DejaVuSans-Bold-6e" d="M 4056 2131 
L 4056 0 
L 2931 0 
L 2931 347 
L 2931 1631 
Q 2931 2084 2911 2256 
Q 2891 2428 2841 2509 
Q 2775 2619 2662 2680 
Q 2550 2741 2406 2741 
Q 2056 2741 1856 2470 
Q 1656 2200 1656 1722 
L 1656 0 
L 538 0 
L 538 3500 
L 1656 3500 
L 1656 2988 
Q 1909 3294 2193 3439 
Q 2478 3584 2822 3584 
Q 3428 3584 3742 3212 
Q 4056 2841 4056 2131 
z
" transform="scale(0.015625)"/>
      <path id="DejaVuSans-Bold-67" d="M 2919 594 
Q 2688 288 2409 144 
Q 2131 0 1766 0 
Q 1125 0 706 504 
Q 288 1009 288 1791 
Q 288 2575 706 3076 
Q 1125 3578 1766 3578 
Q 2131 3578 2409 3434 
Q 2688 3291 2919 2981 
L 2919 3500 
L 4044 3500 
L 4044 353 
Q 4044 -491 3511 -936 
Q 2978 -1381 1966 -1381 
Q 1638 -1381 1331 -1331 
Q 1025 -1281 716 -1178 
L 716 -306 
Q 1009 -475 1290 -558 
Q 1572 -641 1856 -641 
Q 2406 -641 2662 -400 
Q 2919 -159 2919 353 
L 2919 594 
z
M 2181 2772 
Q 1834 2772 1640 2515 
Q 1447 2259 1447 1791 
Q 1447 1309 1634 1061 
Q 1822 813 2181 813 
Q 2531 813 2725 1069 
Q 2919 1325 2919 1791 
Q 2919 2259 2725 2515 
Q 2531 2772 2181 2772 
z
" transform="scale(0.015625)"/>
      <path id="DejaVuSans-Bold-20" transform="scale(0.015625)"/>
      <path id="DejaVuSans-Bold-6c" d="M 538 4863 
L 1656 4863 
L 1656 0 
L 538 0 
L 538 4863 
z
" transform="scale(0.015625)"/>
      <path id="DejaVuSans-Bold-6f" d="M 2203 2784 
Q 1831 2784 1636 2517 
Q 1441 2250 1441 1747 
Q 1441 1244 1636 976 
Q 1831 709 2203 709 
Q 2569 709 2762 976 
Q 2956 1244 2956 1747 
Q 2956 2250 2762 2517 
Q 2569 2784 2203 2784 
z
M 2203 3584 
Q 3106 3584 3614 3096 
Q 4122 2609 4122 1747 
Q 4122 884 3614 396 
Q 3106 -91 2203 -91 
Q 1297 -91 786 396 
Q 275 884 275 1747 
Q 275 2609 786 3096 
Q 1297 3584 2203 3584 
z
" transform="scale(0.015625)"/>
      <path id="DejaVuSans-Bold-73" d="M 3272 3391 
L 3272 2541 
Q 2913 2691 2578 2766 
Q 2244 2841 1947 2841 
Q 1628 2841 1473 2761 
Q 1319 2681 1319 2516 
Q 1319 2381 1436 2309 
Q 1553 2238 1856 2203 
L 2053 2175 
Q 2913 2066 3209 1816 
Q 3506 1566 3506 1031 
Q 3506 472 3093 190 
Q 2681 -91 1863 -91 
Q 1516 -91 1145 -36 
Q 775 19 384 128 
L 384 978 
Q 719 816 1070 734 
Q 1422 653 1784 653 
Q 2113 653 2278 743 
Q 2444 834 2444 1013 
Q 2444 1163 2330 1236 
Q 2216 1309 1875 1350 
L 1678 1375 
Q 931 1469 631 1722 
Q 331 1975 331 2491 
Q 331 3047 712 3315 
Q 1094 3584 1881 3584 
Q 2191 3584 2531 3537 
Q 2872 3491 3272 3391 
z
" transform="scale(0.015625)"/>
      <path id="DejaVuSans-Bold-62" d="M 2400 722 
Q 2759 722 2948 984 
Q 3138 1247 3138 1747 
Q 3138 2247 2948 2509 
Q 2759 2772 2400 2772 
Q 2041 2772 1848 2508 
Q 1656 2244 1656 1747 
Q 1656 1250 1848 986 
Q 2041 722 2400 722 
z
M 1656 2988 
Q 1888 3294 2169 3439 
Q 2450 3584 2816 3584 
Q 3463 3584 3878 3070 
Q 4294 2556 4294 1747 
Q 4294 938 3878 423 
Q 3463 -91 2816 -91 
Q 2450 -91 2169 54 
Q 1888 200 1656 506 
L 1656 0 
L 538 0 
L 538 4863 
L 1656 4863 
L 1656 2988 
z
" transform="scale(0.015625)"/>
      <path id="DejaVuSans-Bold-79" d="M 78 3500 
L 1197 3500 
L 2138 1125 
L 2938 3500 
L 4056 3500 
L 2584 -331 
Q 2363 -916 2067 -1148 
Q 1772 -1381 1288 -1381 
L 641 -1381 
L 641 -647 
L 991 -647 
Q 1275 -647 1404 -556 
Q 1534 -466 1606 -231 
L 1638 -134 
L 78 3500 
z
" transform="scale(0.015625)"/>
      <path id="DejaVuSans-Bold-65" d="M 4031 1759 
L 4031 1441 
L 1416 1441 
Q 1456 1047 1700 850 
Q 1944 653 2381 653 
Q 2734 653 3104 758 
Q 3475 863 3866 1075 
L 3866 213 
Q 3469 63 3072 -14 
Q 2675 -91 2278 -91 
Q 1328 -91 801 392 
Q 275 875 275 1747 
Q 275 2603 792 3093 
Q 1309 3584 2216 3584 
Q 3041 3584 3536 3087 
Q 4031 2591 4031 1759 
z
M 2881 2131 
Q 2881 2450 2695 2645 
Q 2509 2841 2209 2841 
Q 1884 2841 1681 2658 
Q 1478 2475 1428 2131 
L 2881 2131 
z
" transform="scale(0.015625)"/>
      <path id="DejaVuSans-Bold-70" d="M 1656 506 
L 1656 -1331 
L 538 -1331 
L 538 3500 
L 1656 3500 
L 1656 2988 
Q 1888 3294 2169 3439 
Q 2450 3584 2816 3584 
Q 3463 3584 3878 3070 
Q 4294 2556 4294 1747 
Q 4294 938 3878 423 
Q 3463 -91 2816 -91 
Q 2450 -91 2169 54 
Q 1888 200 1656 506 
z
M 2400 2772 
Q 2041 2772 1848 2508 
Q 1656 2244 1656 1747 
Q 1656 1250 1848 986 
Q 2041 722 2400 722 
Q 2759 722 2948 984 
Q 3138 1247 3138 1747 
Q 3138 2247 2948 2509 
Q 2759 2772 2400 2772 
z
" transform="scale(0.015625)"/>
      <path id="DejaVuSans-Bold-63" d="M 3366 3391 
L 3366 2478 
Q 3138 2634 2908 2709 
Q 2678 2784 2431 2784 
Q 1963 2784 1702 2511 
Q 1441 2238 1441 1747 
Q 1441 1256 1702 982 
Q 1963 709 2431 709 
Q 2694 709 2930 787 
Q 3166 866 3366 1019 
L 3366 103 
Q 3103 6 2833 -42 
Q 2563 -91 2291 -91 
Q 1344 -91 809 395 
Q 275 881 275 1747 
Q 275 2613 809 3098 
Q 1344 3584 2291 3584 
Q 2566 3584 2833 3536 
Q 3100 3488 3366 3391 
z
" transform="scale(0.015625)"/>
      <path id="DejaVuSans-Bold-68" d="M 4056 2131 
L 4056 0 
L 2931 0 
L 2931 347 
L 2931 1625 
Q 2931 2084 2911 2256 
Q 2891 2428 2841 2509 
Q 2775 2619 2662 2680 
Q 2550 2741 2406 2741 
Q 2056 2741 1856 2470 
Q 1656 2200 1656 1722 
L 1656 0 
L 538 0 
L 538 4863 
L 1656 4863 
L 1656 2988 
Q 1909 3294 2193 3439 
Q 2478 3584 2822 3584 
Q 3428 3584 3742 3212 
Q 4056 2841 4056 2131 
z
" transform="scale(0.015625)"/>
     </defs>
     <use xlink:href="#DejaVuSans-Bold-54"/>
     <use xlink:href="#DejaVuSans-Bold-72" transform="translate(57.212891 0)"/>
     <use xlink:href="#DejaVuSans-Bold-61" transform="translate(106.529297 0)"/>
     <use xlink:href="#DejaVuSans-Bold-69" transform="translate(174.009766 0)"/>
     <use xlink:href="#DejaVuSans-Bold-6e" transform="translate(208.287109 0)"/>
     <use xlink:href="#DejaVuSans-Bold-69" transform="translate(279.478516 0)"/>
     <use xlink:href="#DejaVuSans-Bold-6e" transform="translate(313.755859 0)"/>
     <use xlink:href="#DejaVuSans-Bold-67" transform="translate(384.947266 0)"/>
     <use xlink:href="#DejaVuSans-Bold-20" transform="translate(456.529297 0)"/>
     <use xlink:href="#DejaVuSans-Bold-6c" transform="translate(491.34375 0)"/>
     <use xlink:href="#DejaVuSans-Bold-6f" transform="translate(525.621094 0)"/>
     <use xlink:href="#DejaVuSans-Bold-73" transform="translate(594.322266 0)"/>
     <use xlink:href="#DejaVuSans-Bold-73" transform="translate(653.84375 0)"/>
     <use xlink:href="#DejaVuSans-Bold-20" transform="translate(713.365234 0)"/>
     <use xlink:href="#DejaVuSans-Bold-62" transform="translate(748.179688 0)"/>
     <use xlink:href="#DejaVuSans-Bold-79" transform="translate(819.761719 0)"/>
     <use xlink:href="#DejaVuSans-Bold-20" transform="translate(884.947266 0)"/>
     <use xlink:href="#DejaVuSans-Bold-65" transform="translate(919.761719 0)"/>
     <use xlink:href="#DejaVuSans-Bold-70" transform="translate(987.583984 0)"/>
     <use xlink:href="#DejaVuSans-Bold-6f" transform="translate(1059.166016 0)"/>
     <use xlink:href="#DejaVuSans-Bold-63" transform="translate(1127.867188 0)"/>
     <use xlink:href="#DejaVuSans-Bold-68" transform="translate(1187.144531 0)"/>
    </g>
   </g>
   <g id="legend_1">
    <g id="line2d_43">
     <path d="M 57.34375 328.177872 
L 65.34375 328.177872 
L 73.34375 328.177872 
" style="fill: none; stroke: #2563eb; stroke-opacity: 0.9; stroke-width: 2; stroke-linecap: square"/>
     <g>
      <use xlink:href="#m2790700d96" x="65.34375" y="328.177872" style="fill: #2563eb; fill-opacity: 0.9; stroke: #2563eb; stroke-opacity: 0.9"/>
     </g>
    </g>
    <g id="text_20">
     <!-- 6DoF 50 ms -->
     <g transform="translate(79.74375 330.977872) scale(0.08 -0.08)">
      <defs>
       <path id="DejaVuSans-44" d="M 1259 4147 
L 1259 519 
L 2022 519 
Q 2988 519 3436 956 
Q 3884 1394 3884 2338 
Q 3884 3275 3436 3711 
Q 2988 4147 2022 4147 
L 1259 4147 
z
M 628 4666 
L 1925 4666 
Q 3281 4666 3915 4102 
Q 4550 3538 4550 2338 
Q 4550 1131 3912 565 
Q 3275 0 1925 0 
L 628 0 
L 628 4666 
z
" transform="scale(0.015625)"/>
       <path id="DejaVuSans-46" d="M 628 4666 
L 3309 4666 
L 3309 4134 
L 1259 4134 
L 1259 2759 
L 3109 2759 
L 3109 2228 
L 1259 2228 
L 1259 0 
L 628 0 
L 628 4666 
z
" transform="scale(0.015625)"/>
       <path id="DejaVuSans-20" transform="scale(0.015625)"/>
       <path id="DejaVuSans-6d" d="M 3328 2828 
Q 3544 3216 3844 3400 
Q 4144 3584 4550 3584 
Q 5097 3584 5394 3201 
Q 5691 2819 5691 2113 
L 5691 0 
L 5113 0 
L 5113 2094 
Q 5113 2597 4934 2840 
Q 4756 3084 4391 3084 
Q 3944 3084 3684 2787 
Q 3425 2491 3425 1978 
L 3425 0 
L 2847 0 
L 2847 2094 
Q 2847 2600 2669 2842 
Q 2491 3084 2119 3084 
Q 1678 3084 1418 2786 
Q 1159 2488 1159 1978 
L 1159 0 
L 581 0 
L 581 3500 
L 1159 3500 
L 1159 2956 
Q 1356 3278 1631 3431 
Q 1906 3584 2284 3584 
Q 2666 3584 2933 3390 
Q 3200 3197 3328 2828 
z
" transform="scale(0.015625)"/>
      </defs>
      <use xlink:href="#DejaVuSans-36"/>
      <use xlink:href="#DejaVuSans-44" transform="translate(63.623047 0)"/>
      <use xlink:href="#DejaVuSans-6f" transform="translate(140.625 0)"/>
      <use xlink:href="#DejaVuSans-46" transform="translate(201.806641 0)"/>
      <use xlink:href="#DejaVuSans-20" transform="translate(259.326172 0)"/>
      <use xlink:href="#DejaVuSans-35" transform="translate(291.113281 0)"/>
      <use xlink:href="#DejaVuSans-30" transform="translate(354.736328 0)"/>
      <use xlink:href="#DejaVuSans-20" transform="translate(418.359375 0)"/>
      <use xlink:href="#DejaVuSans-6d" transform="translate(450.146484 0)"/>
      <use xlink:href="#DejaVuSans-73" transform="translate(547.558594 0)"/>
     </g>
    </g>
    <g id="line2d_44">
     <path d="M 57.34375 339.920372 
L 65.34375 339.920372 
L 73.34375 339.920372 
" style="fill: none; stroke-dasharray: 7.4,3.2; stroke-dashoffset: 0; stroke: #f97316; stroke-opacity: 0.9; stroke-width: 2"/>
     <g>
      <use xlink:href="#m5332472103" x="65.34375" y="339.920372" style="fill: #f97316; fill-opacity: 0.9; stroke: #f97316; stroke-opacity: 0.9"/>
     </g>
    </g>
    <g id="text_21">
     <!-- Heatmap 50 ms -->
     <g transform="translate(79.74375 342.720372) scale(0.08 -0.08)">
      <defs>
       <path id="DejaVuSans-48" d="M 628 4666 
L 1259 4666 
L 1259 2753 
L 3553 2753 
L 3553 4666 
L 4184 4666 
L 4184 0 
L 3553 0 
L 3553 2222 
L 1259 2222 
L 1259 0 
L 628 0 
L 628 4666 
z
" transform="scale(0.015625)"/>
       <path id="DejaVuSans-65" d="M 3597 1894 
L 3597 1613 
L 953 1613 
Q 991 1019 1311 708 
Q 1631 397 2203 397 
Q 2534 397 2845 478 
Q 3156 559 3463 722 
L 3463 178 
Q 3153 47 2828 -22 
Q 2503 -91 2169 -91 
Q 1331 -91 842 396 
Q 353 884 353 1716 
Q 353 2575 817 3079 
Q 1281 3584 2069 3584 
Q 2775 3584 3186 3129 
Q 3597 2675 3597 1894 
z
M 3022 2063 
Q 3016 2534 2758 2815 
Q 2500 3097 2075 3097 
Q 1594 3097 1305 2825 
Q 1016 2553 972 2059 
L 3022 2063 
z
" transform="scale(0.015625)"/>
       <path id="DejaVuSans-61" d="M 2194 1759 
Q 1497 1759 1228 1600 
Q 959 1441 959 1056 
Q 959 750 1161 570 
Q 1363 391 1709 391 
Q 2188 391 2477 730 
Q 2766 1069 2766 1631 
L 2766 1759 
L 2194 1759 
z
M 3341 1997 
L 3341 0 
L 2766 0 
L 2766 531 
Q 2569 213 2275 61 
Q 1981 -91 1556 -91 
Q 1019 -91 701 211 
Q 384 513 384 1019 
Q 384 1609 779 1909 
Q 1175 2209 1959 2209 
L 2766 2209 
L 2766 2266 
Q 2766 2663 2505 2880 
Q 2244 3097 1772 3097 
Q 1472 3097 1187 3025 
Q 903 2953 641 2809 
L 641 3341 
Q 956 3463 1253 3523 
Q 1550 3584 1831 3584 
Q 2591 3584 2966 3190 
Q 3341 2797 3341 1997 
z
" transform="scale(0.015625)"/>
       <path id="DejaVuSans-74" d="M 1172 4494 
L 1172 3500 
L 2356 3500 
L 2356 3053 
L 1172 3053 
L 1172 1153 
Q 1172 725 1289 603 
Q 1406 481 1766 481 
L 2356 481 
L 2356 0 
L 1766 0 
Q 1100 0 847 248 
Q 594 497 594 1153 
L 594 3053 
L 172 3053 
L 172 3500 
L 594 3500 
L 594 4494 
L 1172 4494 
z
" transform="scale(0.015625)"/>
       <path id="DejaVuSans-70" d="M 1159 525 
L 1159 -1331 
L 581 -1331 
L 581 3500 
L 1159 3500 
L 1159 2969 
Q 1341 3281 1617 3432 
Q 1894 3584 2278 3584 
Q 2916 3584 3314 3078 
Q 3713 2572 3713 1747 
Q 3713 922 3314 415 
Q 2916 -91 2278 -91 
Q 1894 -91 1617 61 
Q 1341 213 1159 525 
z
M 3116 1747 
Q 3116 2381 2855 2742 
Q 2594 3103 2138 3103 
Q 1681 3103 1420 2742 
Q 1159 2381 1159 1747 
Q 1159 1113 1420 752 
Q 1681 391 2138 391 
Q 2594 391 2855 752 
Q 3116 1113 3116 1747 
z
" transform="scale(0.015625)"/>
      </defs>
      <use xlink:href="#DejaVuSans-48"/>
      <use xlink:href="#DejaVuSans-65" transform="translate(75.195312 0)"/>
      <use xlink:href="#DejaVuSans-61" transform="translate(136.71875 0)"/>
      <use xlink:href="#DejaVuSans-74" transform="translate(197.998047 0)"/>
      <use xlink:href="#DejaVuSans-6d" transform="translate(237.207031 0)"/>
      <use xlink:href="#DejaVuSans-61" transform="translate(334.619141 0)"/>
      <use xlink:href="#DejaVuSans-70" transform="translate(395.898438 0)"/>
      <use xlink:href="#DejaVuSans-20" transform="translate(459.375 0)"/>
      <use xlink:href="#DejaVuSans-35" transform="translate(491.162109 0)"/>
      <use xlink:href="#DejaVuSans-30" transform="translate(554.785156 0)"/>
      <use xlink:href="#DejaVuSans-20" transform="translate(618.408203 0)"/>
      <use xlink:href="#DejaVuSans-6d" transform="translate(650.195312 0)"/>
      <use xlink:href="#DejaVuSans-73" transform="translate(747.607422 0)"/>
     </g>
    </g>
    <g id="line2d_45">
     <path d="M 57.34375 351.662872 
L 65.34375 351.662872 
L 73.34375 351.662872 
" style="fill: none; stroke-dasharray: 12.8,3.2,2,3.2; stroke-dashoffset: 0; stroke: #2563eb; stroke-opacity: 0.9; stroke-width: 2"/>
     <g>
      <use xlink:href="#m2790700d96" x="65.34375" y="351.662872" style="fill: #2563eb; fill-opacity: 0.9; stroke: #2563eb; stroke-opacity: 0.9"/>
     </g>
    </g>
    <g id="text_22">
     <!-- 6DoF 100 ms -->
     <g transform="translate(79.74375 354.462872) scale(0.08 -0.08)">
      <use xlink:href="#DejaVuSans-36"/>
      <use xlink:href="#DejaVuSans-44" transform="translate(63.623047 0)"/>
      <use xlink:href="#DejaVuSans-6f" transform="translate(140.625 0)"/>
      <use xlink:href="#DejaVuSans-46" transform="translate(201.806641 0)"/>
      <use xlink:href="#DejaVuSans-20" transform="translate(259.326172 0)"/>
      <use xlink:href="#DejaVuSans-31" transform="translate(291.113281 0)"/>
      <use xlink:href="#DejaVuSans-30" transform="translate(354.736328 0)"/>
      <use xlink:href="#DejaVuSans-30" transform="translate(418.359375 0)"/>
      <use xlink:href="#DejaVuSans-20" transform="translate(481.982422 0)"/>
      <use xlink:href="#DejaVuSans-6d" transform="translate(513.769531 0)"/>
      <use xlink:href="#DejaVuSans-73" transform="translate(611.181641 0)"/>
     </g>
    </g>
    <g id="line2d_46">
     <path d="M 57.34375 363.405372 
L 65.34375 363.405372 
L 73.34375 363.405372 
" style="fill: none; stroke-dasharray: 2,3.3; stroke-dashoffset: 0; stroke: #f97316; stroke-opacity: 0.9; stroke-width: 2"/>
     <g>
      <use xlink:href="#m5332472103" x="65.34375" y="363.405372" style="fill: #f97316; fill-opacity: 0.9; stroke: #f97316; stroke-opacity: 0.9"/>
     </g>
    </g>
    <g id="text_23">
     <!-- Heatmap 100 ms -->
     <g transform="translate(79.74375 366.205372) scale(0.08 -0.08)">
      <use xlink:href="#DejaVuSans-48"/>
      <use xlink:href="#DejaVuSans-65" transform="translate(75.195312 0)"/>
      <use xlink:href="#DejaVuSans-61" transform="translate(136.71875 0)"/>
      <use xlink:href="#DejaVuSans-74" transform="translate(197.998047 0)"/>
      <use xlink:href="#DejaVuSans-6d" transform="translate(237.207031 0)"/>
      <use xlink:href="#DejaVuSans-61" transform="translate(334.619141 0)"/>
      <use xlink:href="#DejaVuSans-70" transform="translate(395.898438 0)"/>
      <use xlink:href="#DejaVuSans-20" transform="translate(459.375 0)"/>
      <use xlink:href="#DejaVuSans-31" transform="translate(491.162109 0)"/>
      <use xlink:href="#DejaVuSans-30" transform="translate(554.785156 0)"/>
      <use xlink:href="#DejaVuSans-30" transform="translate(618.408203 0)"/>
      <use xlink:href="#DejaVuSans-20" transform="translate(682.03125 0)"/>
      <use xlink:href="#DejaVuSans-6d" transform="translate(713.818359 0)"/>
      <use xlink:href="#DejaVuSans-73" transform="translate(811.230469 0)"/>
     </g>
    </g>
    <g id="line2d_47">
     <path d="M 164.81 328.177872 
L 172.81 328.177872 
L 180.81 328.177872 
" style="fill: none; stroke: #2563eb; stroke-opacity: 0.75; stroke-width: 2; stroke-linecap: square"/>
     <g>
      <use xlink:href="#m3abdf42647" x="172.81" y="328.177872" style="fill: #2563eb; fill-opacity: 0.75; stroke: #2563eb; stroke-opacity: 0.75"/>
     </g>
    </g>
    <g id="text_24">
     <!-- 6DoF 150 ms -->
     <g transform="translate(187.21 330.977872) scale(0.08 -0.08)">
      <use xlink:href="#DejaVuSans-36"/>
      <use xlink:href="#DejaVuSans-44" transform="translate(63.623047 0)"/>
      <use xlink:href="#DejaVuSans-6f" transform="translate(140.625 0)"/>
      <use xlink:href="#DejaVuSans-46" transform="translate(201.806641 0)"/>
      <use xlink:href="#DejaVuSans-20" transform="translate(259.326172 0)"/>
      <use xlink:href="#DejaVuSans-31" transform="translate(291.113281 0)"/>
      <use xlink:href="#DejaVuSans-35" transform="translate(354.736328 0)"/>
      <use xlink:href="#DejaVuSans-30" transform="translate(418.359375 0)"/>
      <use xlink:href="#DejaVuSans-20" transform="translate(481.982422 0)"/>
      <use xlink:href="#DejaVuSans-6d" transform="translate(513.769531 0)"/>
      <use xlink:href="#DejaVuSans-73" transform="translate(611.181641 0)"/>
     </g>
    </g>
    <g id="line2d_48">
     <path d="M 164.81 339.920372 
L 172.81 339.920372 
L 180.81 339.920372 
" style="fill: none; stroke-dasharray: 7.4,3.2; stroke-dashoffset: 0; stroke: #f97316; stroke-opacity: 0.75; stroke-width: 2"/>
     <g>
      <use xlink:href="#mf3f2db6bd4" x="172.81" y="339.920372" style="fill: #f97316; fill-opacity: 0.75; stroke: #f97316; stroke-opacity: 0.75"/>
     </g>
    </g>
    <g id="text_25">
     <!-- Heatmap 150 ms -->
     <g transform="translate(187.21 342.720372) scale(0.08 -0.08)">
      <use xlink:href="#DejaVuSans-48"/>
      <use xlink:href="#DejaVuSans-65" transform="translate(75.195312 0)"/>
      <use xlink:href="#DejaVuSans-61" transform="translate(136.71875 0)"/>
      <use xlink:href="#DejaVuSans-74" transform="translate(197.998047 0)"/>
      <use xlink:href="#DejaVuSans-6d" transform="translate(237.207031 0)"/>
      <use xlink:href="#DejaVuSans-61" transform="translate(334.619141 0)"/>
      <use xlink:href="#DejaVuSans-70" transform="translate(395.898438 0)"/>
      <use xlink:href="#DejaVuSans-20" transform="translate(459.375 0)"/>
      <use xlink:href="#DejaVuSans-31" transform="translate(491.162109 0)"/>
      <use xlink:href="#DejaVuSans-35" transform="translate(554.785156 0)"/>
      <use xlink:href="#DejaVuSans-30" transform="translate(618.408203 0)"/>
      <use xlink:href="#DejaVuSans-20" transform="translate(682.03125 0)"/>
      <use xlink:href="#DejaVuSans-6d" transform="translate(713.818359 0)"/>
      <use xlink:href="#DejaVuSans-73" transform="translate(811.230469 0)"/>
     </g>
    </g>
    <g id="line2d_49">
     <path d="M 164.81 351.662872 
L 172.81 351.662872 
L 180.81 351.662872 
" style="fill: none; stroke-dasharray: 12.8,3.2,2,3.2; stroke-dashoffset: 0; stroke: #2563eb; stroke-opacity: 0.75; stroke-width: 2"/>
     <g>
      <use xlink:href="#m3abdf42647" x="172.81" y="351.662872" style="fill: #2563eb; fill-opacity: 0.75; stroke: #2563eb; stroke-opacity: 0.75"/>
     </g>
    </g>
    <g id="text_26">
     <!-- 6DoF 200 ms -->
     <g transform="translate(187.21 354.462872) scale(0.08 -0.08)">
      <use xlink:href="#DejaVuSans-36"/>
      <use xlink:href="#DejaVuSans-44" transform="translate(63.623047 0)"/>
      <use xlink:href="#DejaVuSans-6f" transform="translate(140.625 0)"/>
      <use xlink:href="#DejaVuSans-46" transform="translate(201.806641 0)"/>
      <use xlink:href="#DejaVuSans-20" transform="translate(259.326172 0)"/>
      <use xlink:href="#DejaVuSans-32" transform="translate(291.113281 0)"/>
      <use xlink:href="#DejaVuSans-30" transform="translate(354.736328 0)"/>
      <use xlink:href="#DejaVuSans-30" transform="translate(418.359375 0)"/>
      <use xlink:href="#DejaVuSans-20" transform="translate(481.982422 0)"/>
      <use xlink:href="#DejaVuSans-6d" transform="translate(513.769531 0)"/>
      <use xlink:href="#DejaVuSans-73" transform="translate(611.181641 0)"/>
     </g>
    </g>
    <g id="line2d_50">
     <path d="M 164.81 363.405372 
L 172.81 363.405372 
L 180.81 363.405372 
" style="fill: none; stroke-dasharray: 2,3.3; stroke-dashoffset: 0; stroke: #f97316; stroke-opacity: 0.75; stroke-width: 2"/>
     <g>
      <use xlink:href="#mf3f2db6bd4" x="172.81" y="363.405372" style="fill: #f97316; fill-opacity: 0.75; stroke: #f97316; stroke-opacity: 0.75"/>
     </g>
    </g>
    <g id="text_27">
     <!-- Heatmap 200 ms -->
     <g transform="translate(187.21 366.205372) scale(0.08 -0.08)">
      <use xlink:href="#DejaVuSans-48"/>
      <use xlink:href="#DejaVuSans-65" transform="translate(75.195312 0)"/>
      <use xlink:href="#DejaVuSans-61" transform="translate(136.71875 0)"/>
      <use xlink:href="#DejaVuSans-74" transform="translate(197.998047 0)"/>
      <use xlink:href="#DejaVuSans-6d" transform="translate(237.207031 0)"/>
      <use xlink:href="#DejaVuSans-61" transform="translate(334.619141 0)"/>
      <use xlink:href="#DejaVuSans-70" transform="translate(395.898438 0)"/>
      <use xlink:href="#DejaVuSans-20" transform="translate(459.375 0)"/>
      <use xlink:href="#DejaVuSans-32" transform="translate(491.162109 0)"/>
      <use xlink:href="#DejaVuSans-30" transform="translate(554.785156 0)"/>
      <use xlink:href="#DejaVuSans-30" transform="translate(618.408203 0)"/>
      <use xlink:href="#DejaVuSans-20" transform="translate(682.03125 0)"/>
      <use xlink:href="#DejaVuSans-6d" transform="translate(713.818359 0)"/>
      <use xlink:href="#DejaVuSans-73" transform="translate(811.230469 0)"/>
     </g>
    </g>
   </g>
  </g>
 </g>
 <defs>
  <clipPath id="p831bfceb4e">
   <rect x="50.14375" y="32.597656" width="640.87" height="254.55488"/>
  </clipPath>
 </defs>
</svg>
